<svg xmlns="http://www.w3.org/2000/svg" viewBox="0 0 250.88 81.75"><defs><style>.cls-1{fill:#077bc0;}.cls-2{fill:#0d7cc0;}</style></defs><g id="Layer_2" data-name="Layer 2"><g id="Calque_1" data-name="Calque 1"><path d="M0,81.74V75.36H2.06a2.47,2.47,0,0,1,.86.13,1.42,1.42,0,0,1,.6.39,1.77,1.77,0,0,1,.35.65,3,3,0,0,1,.12.89,3.15,3.15,0,0,1-.13.9,2.06,2.06,0,0,1-.38.7,1.74,1.74,0,0,1-.65.44,2.52,2.52,0,0,1-.91.15H.79v2.13Zm.79-2.83H1.92a1.69,1.69,0,0,0,.64-.1A1,1,0,0,0,3,78.5,1.17,1.17,0,0,0,3.14,78a2.94,2.94,0,0,0,0-.62,2.77,2.77,0,0,0-.06-.62,1,1,0,0,0-.19-.42.86.86,0,0,0-.36-.25A2,2,0,0,0,2,76.05H.79Z"/><path d="M7.61,81.74v-.07c.14-.59.3-1.21.48-1.83s.37-1.23.57-1.81.39-1.1.58-1.56a8.9,8.9,0,0,1,.5-1.11h1a8.9,8.9,0,0,1,.5,1.11c.19.46.38,1,.58,1.56s.39,1.18.57,1.81.34,1.24.48,1.83v.07h-.8c0-.06,0-.18-.08-.36l-.12-.45c0-.12-.06-.25-.1-.38s-.06-.25-.1-.38H8.76c0,.13-.06.26-.1.39s-.07.26-.1.39-.07.26-.09.39-.06.26-.1.4ZM10.24,76c-.12.22-.23.46-.34.72a8.17,8.17,0,0,0-.33.84c-.11.29-.21.6-.31.91s-.2.65-.3,1h2.55c-.1-.34-.2-.66-.3-1s-.2-.62-.31-.91-.22-.58-.33-.84S10.35,76.24,10.24,76Z"/><path d="M17.23,81.74V75.36h2.06a2.83,2.83,0,0,1,.87.11,1.39,1.39,0,0,1,.59.35,1.49,1.49,0,0,1,.35.6,2.77,2.77,0,0,1,.12.87,2.73,2.73,0,0,1-.08.67,2,2,0,0,1-.23.51,1.45,1.45,0,0,1-.37.37,2.73,2.73,0,0,1-.48.27,3.54,3.54,0,0,1,.53.6,6.76,6.76,0,0,1,.46.72c.14.25.26.48.36.7a4.1,4.1,0,0,1,.21.54v.07h-.83a2.38,2.38,0,0,0-.21-.53c-.1-.22-.23-.45-.37-.7a7.13,7.13,0,0,0-.46-.67,3.19,3.19,0,0,0-.46-.49H18v2.39ZM18,78.65h1.07a1.65,1.65,0,0,0,.62-.1.94.94,0,0,0,.41-.28,1.05,1.05,0,0,0,.23-.43,1.88,1.88,0,0,0,.07-.55,2.38,2.38,0,0,0-.06-.59,1,1,0,0,0-.21-.38.88.88,0,0,0-.37-.2,1.82,1.82,0,0,0-.56-.07H18Z"/><path d="M26.15,81.74V75.36h.79v6.38Z"/><path d="M31.57,81.49v-.7h.07l.33.08.42.09.44.07.4,0h.27a2.32,2.32,0,0,0,.55-.06,1,1,0,0,0,.42-.19.73.73,0,0,0,.27-.33,1.22,1.22,0,0,0,.1-.49,1.33,1.33,0,0,0-.07-.43.71.71,0,0,0-.18-.29,1,1,0,0,0-.29-.19,2.3,2.3,0,0,0-.4-.14L33,78.71a2.72,2.72,0,0,1-.5-.19,1.77,1.77,0,0,1-.44-.31,1.44,1.44,0,0,1-.32-.49,1.59,1.59,0,0,1-.13-.68,1.74,1.74,0,0,1,.14-.69,1.55,1.55,0,0,1,.41-.54,2.06,2.06,0,0,1,.66-.34,2.86,2.86,0,0,1,.85-.12h.2a2.62,2.62,0,0,1,.38,0,3.18,3.18,0,0,1,.43.06l.39.08a1.42,1.42,0,0,1,.26.1v.67H35.3A1.71,1.71,0,0,0,35,76.2l-.37-.08-.39-.05-.35,0h-.2a2.23,2.23,0,0,0-.54.06,1.08,1.08,0,0,0-.39.18.8.8,0,0,0-.25.32,1,1,0,0,0-.09.45,1,1,0,0,0,.08.4.66.66,0,0,0,.19.27,1.34,1.34,0,0,0,.28.18l.39.13.83.23a4.61,4.61,0,0,1,.53.19,1.9,1.9,0,0,1,.45.31,1.35,1.35,0,0,1,.32.49,1.82,1.82,0,0,1,.13.74,1.66,1.66,0,0,1-.15.72,1.36,1.36,0,0,1-.42.56,1.8,1.8,0,0,1-.67.36,3.09,3.09,0,0,1-.89.12h-.27l-.43,0a4,4,0,0,1-.48-.07l-.44-.08Z"/><path d="M45.79,81.74V75.36h2.06a2.47,2.47,0,0,1,.86.13,1.56,1.56,0,0,1,.6.39,1.77,1.77,0,0,1,.35.65,3,3,0,0,1,.11.89,3.16,3.16,0,0,1-.12.9,2.08,2.08,0,0,1-.39.7,1.63,1.63,0,0,1-.64.44,2.59,2.59,0,0,1-.91.15H46.58v2.13Zm.79-2.83h1.13a1.69,1.69,0,0,0,.64-.1.87.87,0,0,0,.39-.31,1.18,1.18,0,0,0,.19-.46,2.94,2.94,0,0,0,0-.62,2.77,2.77,0,0,0-.06-.62,1,1,0,0,0-.19-.42.86.86,0,0,0-.36-.25,2,2,0,0,0-.59-.08h-1.2Z"/><path d="M53.39,81.74v-.07c.15-.59.31-1.21.49-1.83s.37-1.23.57-1.81.39-1.1.57-1.56.36-.84.5-1.11h1a8.9,8.9,0,0,1,.5,1.11c.19.46.38,1,.58,1.56s.38,1.18.57,1.81.34,1.24.48,1.83v.07h-.8c0-.06,0-.18-.08-.36l-.12-.45c0-.12-.06-.25-.1-.38s-.06-.25-.1-.38H54.55c0,.13-.07.26-.1.39s-.07.26-.1.39-.07.26-.1.39-.06.26-.09.4ZM56,76c-.12.22-.23.46-.34.72a8.17,8.17,0,0,0-.33.84c-.11.29-.21.6-.31.91s-.2.65-.3,1H57.3c-.1-.34-.2-.66-.3-1s-.2-.62-.31-.91-.22-.58-.33-.84S56.14,76.24,56,76Z"/><path d="M63,81.74V75.36h.53L67,80.08V75.36h.8v6.38h-.53L63.82,77v4.72Z"/><path d="M74.13,81.74V76.05h-2v-.69h4.8v.69h-2v5.69Z"/><path d="M81.25,81.74V75.36h.8V78h3.13V75.36H86v6.38h-.79v-3H82.05v3Z"/><path d="M90.9,80V75.36h3.6v.69H91.71v2h2.52v.71H91.71v1.36a1.41,1.41,0,0,0,.05.43.87.87,0,0,0,.17.3,1,1,0,0,0,.27.17,1.06,1.06,0,0,0,.37.06H94.5v.7H92.63a2.48,2.48,0,0,1-.75-.1,1.34,1.34,0,0,1-.54-.32,1.45,1.45,0,0,1-.33-.54A2.51,2.51,0,0,1,90.9,80Zm1.3-5.32v-.13l.83-1.2h.83v.13l-1.19,1.2Z"/><path d="M98.78,78.81v-.52A3.88,3.88,0,0,1,99,77.06a2.33,2.33,0,0,1,.51-.93,2,2,0,0,1,.84-.58,2.9,2.9,0,0,1,1.14-.2,3.1,3.1,0,0,1,1.14.19,2.13,2.13,0,0,1,.83.57,2.51,2.51,0,0,1,.52.92,4.41,4.41,0,0,1,.17,1.26v.52a4.3,4.3,0,0,1-.17,1.23,2.64,2.64,0,0,1-.52.93,2.26,2.26,0,0,1-.83.58,3.46,3.46,0,0,1-2.29,0,2.13,2.13,0,0,1-.83-.57,2.36,2.36,0,0,1-.51-.92A4.08,4.08,0,0,1,98.78,78.81Zm.8,0a3.7,3.7,0,0,0,.12,1,1.92,1.92,0,0,0,.35.7,1.43,1.43,0,0,0,.58.41,2.28,2.28,0,0,0,.82.13,2.31,2.31,0,0,0,.82-.13,1.5,1.5,0,0,0,.58-.41,1.91,1.91,0,0,0,.34-.7,3.7,3.7,0,0,0,.12-1v-.52a3.78,3.78,0,0,0-.12-1,1.86,1.86,0,0,0-.34-.69,1.4,1.4,0,0,0-.58-.41,2.31,2.31,0,0,0-.82-.14,2.27,2.27,0,0,0-.82.14,1.34,1.34,0,0,0-.58.41,1.87,1.87,0,0,0-.35.69,3.78,3.78,0,0,0-.12,1Z"/><path d="M108.77,81.74V75.36h.53l3.47,4.72V75.36h.79v6.38H113L109.57,77v4.72Z"/><path d="M118.22,78.81v-.66h2.4v.66Z"/><path class="cls-1" d="M124.47,81.74v-.07c.14-.59.3-1.21.49-1.83s.37-1.23.57-1.81.39-1.1.57-1.56a10.66,10.66,0,0,1,.5-1.11h1a10.66,10.66,0,0,1,.5,1.11q.27.69.57,1.56c.2.58.39,1.18.57,1.81s.35,1.24.49,1.83v.07H129q0-.09-.09-.36c0-.18-.08-.33-.11-.45s-.07-.25-.1-.38-.07-.25-.1-.38h-2.94c0,.13-.07.26-.1.39s-.07.26-.11.39l-.09.39-.09.4ZM127.1,76c-.11.22-.22.46-.34.72s-.22.54-.33.84-.2.6-.31.91-.2.65-.3,1h2.55c-.09-.34-.19-.66-.29-1s-.21-.62-.31-.91-.22-.58-.33-.84A7.16,7.16,0,0,0,127.1,76Z"/><path class="cls-1" d="M133.86,81.49v-.7h.07l.33.08.42.09.45.07.4,0h.26a2.32,2.32,0,0,0,.55-.06,1.13,1.13,0,0,0,.43-.19.78.78,0,0,0,.26-.33,1.07,1.07,0,0,0,.1-.49,1.11,1.11,0,0,0-.07-.43.71.71,0,0,0-.18-.29.86.86,0,0,0-.29-.19,2.3,2.3,0,0,0-.4-.14l-.87-.22a3,3,0,0,1-.5-.19,1.77,1.77,0,0,1-.44-.31,1.44,1.44,0,0,1-.32-.49,1.59,1.59,0,0,1-.13-.68,1.74,1.74,0,0,1,.14-.69,1.58,1.58,0,0,1,.42-.54,1.91,1.91,0,0,1,.65-.34,2.86,2.86,0,0,1,.85-.12h.2a2.62,2.62,0,0,1,.38,0,3,3,0,0,1,.43.06l.39.08a2,2,0,0,1,.27.1v.67h-.07a1.71,1.71,0,0,0-.29-.08l-.37-.08-.39-.05-.35,0H136a2.23,2.23,0,0,0-.54.06,1.17,1.17,0,0,0-.39.18.8.8,0,0,0-.25.32,1,1,0,0,0-.08.45,1,1,0,0,0,.07.4.77.77,0,0,0,.19.27,1.67,1.67,0,0,0,.28.18l.39.13.83.23a4.8,4.8,0,0,1,.54.19,2.08,2.08,0,0,1,.44.31,1.5,1.5,0,0,1,.33.49,2,2,0,0,1,.12.74,1.66,1.66,0,0,1-.15.72,1.36,1.36,0,0,1-.42.56,1.8,1.8,0,0,1-.67.36,3,3,0,0,1-.89.12h-.26l-.43,0a3.85,3.85,0,0,1-.49-.07l-.44-.08Z"/><path class="cls-1" d="M142.05,81.49v-.7h.07l.32.08.42.09.45.07.4,0H144a2.38,2.38,0,0,0,.55-.06,1.15,1.15,0,0,0,.42-.19.73.73,0,0,0,.27-.33,1.22,1.22,0,0,0,.09-.49,1.35,1.35,0,0,0-.06-.43.71.71,0,0,0-.18-.29,1,1,0,0,0-.29-.19,2.64,2.64,0,0,0-.4-.14l-.87-.22a2.47,2.47,0,0,1-.5-.19,1.6,1.6,0,0,1-.44-.31,1.32,1.32,0,0,1-.33-.49,1.76,1.76,0,0,1-.12-.68,1.74,1.74,0,0,1,.14-.69,1.44,1.44,0,0,1,.41-.54,1.87,1.87,0,0,1,.66-.34,2.82,2.82,0,0,1,.85-.12h.2a2.62,2.62,0,0,1,.38,0,3,3,0,0,1,.42.06,3,3,0,0,1,.39.08,1.3,1.3,0,0,1,.27.1v.67h-.07a1.48,1.48,0,0,0-.29-.08l-.36-.08-.39-.05-.35,0h-.2a2.23,2.23,0,0,0-.54.06,1.13,1.13,0,0,0-.4.18.7.7,0,0,0-.24.32,1,1,0,0,0-.09.45,1,1,0,0,0,.07.4.79.79,0,0,0,.2.27,1.12,1.12,0,0,0,.28.18,2.94,2.94,0,0,0,.39.13l.82.23a4.8,4.8,0,0,1,.54.19,1.67,1.67,0,0,1,.44.31,1.25,1.25,0,0,1,.33.49,2,2,0,0,1,.12.74,1.65,1.65,0,0,1-.14.72,1.56,1.56,0,0,1-.42.56,1.88,1.88,0,0,1-.67.36,3.14,3.14,0,0,1-.89.12h-.27l-.43,0a4,4,0,0,1-.48-.07c-.17,0-.31-.05-.45-.08Z"/><path class="cls-1" d="M150.07,81.74v-.07c.14-.59.3-1.21.48-1.83s.37-1.23.57-1.81.39-1.1.58-1.56a11,11,0,0,1,.49-1.11h1a8.9,8.9,0,0,1,.5,1.11c.19.46.38,1,.58,1.56s.39,1.18.57,1.81.34,1.24.48,1.83v.07h-.8c0-.06,0-.18-.08-.36l-.12-.45c0-.12-.06-.25-.1-.38s-.06-.25-.1-.38h-2.94c0,.13-.06.26-.1.39s-.07.26-.1.39-.07.26-.09.39-.06.26-.1.4ZM152.7,76c-.12.22-.23.46-.34.72a8.17,8.17,0,0,0-.33.84c-.11.29-.21.6-.31.91l-.3,1H154c-.1-.34-.2-.66-.3-1s-.2-.62-.31-.91-.22-.58-.33-.84S152.81,76.24,152.7,76Z"/><path class="cls-1" d="M159.46,81.49v-.7h.07l.32.08.42.09.45.07.4,0h.26a2.4,2.4,0,0,0,.56-.06,1.15,1.15,0,0,0,.42-.19.73.73,0,0,0,.27-.33,1.22,1.22,0,0,0,.09-.49,1.35,1.35,0,0,0-.06-.43.73.73,0,0,0-.19-.29.82.82,0,0,0-.28-.19,2.64,2.64,0,0,0-.4-.14l-.87-.22a2.47,2.47,0,0,1-.5-.19,1.6,1.6,0,0,1-.44-.31,1.32,1.32,0,0,1-.33-.49,1.76,1.76,0,0,1-.12-.68,1.58,1.58,0,0,1,.14-.69,1.44,1.44,0,0,1,.41-.54,1.87,1.87,0,0,1,.66-.34,2.82,2.82,0,0,1,.85-.12h.2a2.62,2.62,0,0,1,.38,0,3,3,0,0,1,.42.06,3.33,3.33,0,0,1,.39.08,1.3,1.3,0,0,1,.27.1v.67h-.07a1.48,1.48,0,0,0-.29-.08l-.36-.08-.4-.05-.34,0h-.2a2.12,2.12,0,0,0-.54.06,1.13,1.13,0,0,0-.4.18.8.8,0,0,0-.25.32,1.21,1.21,0,0,0-.08.45,1,1,0,0,0,.07.4.79.79,0,0,0,.2.27,1.12,1.12,0,0,0,.28.18,2.94,2.94,0,0,0,.39.13l.82.23a4.8,4.8,0,0,1,.54.19,1.67,1.67,0,0,1,.44.31,1.25,1.25,0,0,1,.33.49,2,2,0,0,1,.12.74,1.65,1.65,0,0,1-.14.72,1.56,1.56,0,0,1-.42.56,1.84,1.84,0,0,1-.68.36,3,3,0,0,1-.89.12h-.26l-.43,0a4,4,0,0,1-.48-.07c-.17,0-.31-.05-.45-.08Z"/><path d="M173.61,79.51V75.36h.8V79.5a2.1,2.1,0,0,0,.11.7,1.35,1.35,0,0,0,.32.49,1.42,1.42,0,0,0,.48.27,2,2,0,0,0,.61.09,2.06,2.06,0,0,0,.62-.09,1.42,1.42,0,0,0,.48-.27,1.27,1.27,0,0,0,.32-.48,1.88,1.88,0,0,0,.12-.71V75.36h.8v4.15a2.59,2.59,0,0,1-.17.95,2,2,0,0,1-.47.71,2.09,2.09,0,0,1-.74.43,3.18,3.18,0,0,1-1.93,0,2.09,2.09,0,0,1-.74-.43,1.94,1.94,0,0,1-.46-.71A2.83,2.83,0,0,1,173.61,79.51Z"/><path d="M183.13,81.74V75.36h.53l3.46,4.72V75.36h.8v6.38h-.53L183.93,77v4.72Z"/><path d="M192.85,81.74V75.36h.79v6.38Z"/><path d="M203.2,75.36v.06c-.13.59-.29,1.2-.47,1.83s-.36,1.24-.56,1.82-.38,1.1-.57,1.56a10.49,10.49,0,0,1-.5,1.11h-1a12.1,12.1,0,0,1-.5-1.12c-.19-.46-.38-1-.58-1.56s-.38-1.18-.56-1.81S198.1,76,198,75.42v-.06h.8c.12.53.24,1.06.38,1.58s.28,1,.44,1.54.32,1,.49,1.42a11.18,11.18,0,0,0,.52,1.18c.17-.34.35-.74.52-1.18s.34-.92.5-1.43.3-1,.43-1.54.26-1.05.38-1.57Z"/><path d="M207.52,80V75.36h3.6v.69h-2.8v2h2.52v.71h-2.52v1.36a1.4,1.4,0,0,0,.06.43.87.87,0,0,0,.17.3,1,1,0,0,0,.27.17,1,1,0,0,0,.36.06h1.94v.7h-1.87a2.48,2.48,0,0,1-.75-.1,1.34,1.34,0,0,1-.54-.32,1.45,1.45,0,0,1-.33-.54A2.51,2.51,0,0,1,207.52,80Z"/><path d="M215.81,81.74V75.36h2.06a2.72,2.72,0,0,1,.86.11,1.42,1.42,0,0,1,.6.35,1.49,1.49,0,0,1,.35.6,2.77,2.77,0,0,1,.12.87,2.31,2.31,0,0,1-.09.67,1.69,1.69,0,0,1-.23.51,1.41,1.41,0,0,1-.36.37,2.73,2.73,0,0,1-.48.27,3.51,3.51,0,0,1,.52.6,5.56,5.56,0,0,1,.47.72c.14.25.26.48.36.7a4.1,4.1,0,0,1,.21.54v.07h-.83a2.38,2.38,0,0,0-.21-.53c-.1-.22-.23-.45-.37-.7a7.13,7.13,0,0,0-.46-.67,3.76,3.76,0,0,0-.46-.49H216.6v2.39Zm.79-3.09h1.07a1.65,1.65,0,0,0,.62-.1.94.94,0,0,0,.41-.28,1.05,1.05,0,0,0,.23-.43,1.88,1.88,0,0,0,.07-.55,2.38,2.38,0,0,0-.06-.59,1,1,0,0,0-.21-.38.88.88,0,0,0-.37-.2,1.82,1.82,0,0,0-.56-.07h-1.2Z"/><path d="M224.43,81.49v-.7h.07l.32.08.42.09.45.07.4,0h.26a2.4,2.4,0,0,0,.56-.06,1.15,1.15,0,0,0,.42-.19.89.89,0,0,0,.27-.33,1.22,1.22,0,0,0,.09-.49,1.35,1.35,0,0,0-.06-.43.86.86,0,0,0-.19-.29.92.92,0,0,0-.28-.19,2.43,2.43,0,0,0-.41-.14l-.87-.22a2.62,2.62,0,0,1-.49-.19,1.47,1.47,0,0,1-.44-.31,1.32,1.32,0,0,1-.33-.49,1.76,1.76,0,0,1-.12-.68,1.58,1.58,0,0,1,.14-.69,1.44,1.44,0,0,1,.41-.54,1.87,1.87,0,0,1,.66-.34,2.82,2.82,0,0,1,.85-.12h.19a2.68,2.68,0,0,1,.39,0,3,3,0,0,1,.42.06l.39.08a1.3,1.3,0,0,1,.27.1v.67h-.07a1.71,1.71,0,0,0-.29-.08l-.37-.08-.39-.05-.35,0h-.19a2.12,2.12,0,0,0-.54.06,1.13,1.13,0,0,0-.4.18.8.8,0,0,0-.25.32,1.21,1.21,0,0,0-.08.45,1,1,0,0,0,.07.4.68.68,0,0,0,.2.27,1.12,1.12,0,0,0,.28.18,2.94,2.94,0,0,0,.39.13l.82.23a4.8,4.8,0,0,1,.54.19,1.67,1.67,0,0,1,.44.31,1.25,1.25,0,0,1,.33.49,2,2,0,0,1,.12.74,1.81,1.81,0,0,1-.14.72,1.56,1.56,0,0,1-.42.56,1.84,1.84,0,0,1-.68.36,3,3,0,0,1-.89.12h-.26l-.43,0a4.44,4.44,0,0,1-.49-.07l-.44-.08Z"/><path d="M233.05,81.74V75.36h.79v6.38Z"/><path d="M240.17,81.74V76.05h-2v-.69H243v.69h-2v5.69Z"/><path d="M247.29,80V75.36h3.59v.69h-2.79v2h2.52v.71h-2.52v1.36a1.4,1.4,0,0,0,.06.43.87.87,0,0,0,.17.3.73.73,0,0,0,.27.17A1,1,0,0,0,249,81h1.93v.7H249a2.39,2.39,0,0,1-.75-.1,1.22,1.22,0,0,1-.54-.32,1.23,1.23,0,0,1-.33-.54A2.51,2.51,0,0,1,247.29,80Zm1.29-5.32v-.13l.84-1.2h.82v.13l-1.19,1.2Z"/><path class="cls-2" d="M183.42,24.44H170a10.23,10.23,0,0,0-3.8.89,10.86,10.86,0,0,0-3.07,2.16,9.75,9.75,0,0,0-2.15,3.2,10.15,10.15,0,0,0-.76,3.87V62.05H168V34.56a2.19,2.19,0,0,1,.63-1.6,2.23,2.23,0,0,1,1.53-.72h21.27s.62-7.8-8-7.8"/><path class="cls-2" d="M243.08,32.39v29.5h7.8V24.33s-7.8-.61-7.8,8.06"/><path class="cls-2" d="M243.08,13.37v9.08s7.8.61,7.8-8v-1Z"/><path class="cls-2" d="M232.81,27.72a10.15,10.15,0,0,0-3.22-2.17,9.83,9.83,0,0,0-3.92-.81H206a9.79,9.79,0,0,0-4,.81,10.2,10.2,0,0,0-3.18,2.17,10,10,0,0,0-2.16,3.22,9.64,9.64,0,0,0-.82,3.92V51.93a9.53,9.53,0,0,0,.82,4,10.51,10.51,0,0,0,2.16,3.19A10.39,10.39,0,0,0,202,61.24a9.84,9.84,0,0,0,4,.81h20.2c8.66,0,7.42-7.8,7.42-7.8H206a2.26,2.26,0,0,1-2.32-2.32V47.81h22a9.75,9.75,0,0,0,3.84-.76,11.09,11.09,0,0,0,3.13-2,10.56,10.56,0,0,0,2.21-3,9.71,9.71,0,0,0,.94-3.87V34.79a9.6,9.6,0,0,0-.82-3.9,10.3,10.3,0,0,0-2.16-3.17M228,37.78a2.21,2.21,0,0,1-.72,1.59,2.13,2.13,0,0,1-1.59.64h-22V34.86A2.26,2.26,0,0,1,206,32.55h19.66a2.22,2.22,0,0,1,1.65.65,2.24,2.24,0,0,1,.66,1.66Z"/><path class="cls-2" d="M118.06,27.72a10,10,0,0,0-3.22-2.17,9.83,9.83,0,0,0-3.92-.81H91.26a9.79,9.79,0,0,0-4,.81,10.26,10.26,0,0,0-5.35,5.39,10,10,0,0,0-.81,3.92V51.93a9.85,9.85,0,0,0,.81,4,10.72,10.72,0,0,0,2.17,3.19,10.32,10.32,0,0,0,3.18,2.15,9.79,9.79,0,0,0,4,.81h20.2c8.66,0,7.41-7.8,7.41-7.8H91.26a2.24,2.24,0,0,1-2.32-2.32V47.81h22a9.75,9.75,0,0,0,3.84-.76,10.81,10.81,0,0,0,3.13-2,10.56,10.56,0,0,0,2.21-3,9.71,9.71,0,0,0,.93-3.87V34.79a9.76,9.76,0,0,0-.8-3.9,10.51,10.51,0,0,0-2.17-3.17m-4.82,10.06a2.22,2.22,0,0,1-.73,1.59,2.13,2.13,0,0,1-1.59.64h-22V34.86a2.24,2.24,0,0,1,2.32-2.31h19.66a2.22,2.22,0,0,1,1.65.65,2.25,2.25,0,0,1,.67,1.66Z"/><path class="cls-2" d="M135.44,24.74V14.64a2.17,2.17,0,0,1,.63-1.61,2.24,2.24,0,0,1,1.54-.71h28.44s1.24-7.82-7.42-7.82H137.4a10.48,10.48,0,0,0-3.8.9,11.15,11.15,0,0,0-3.07,2.16,9.88,9.88,0,0,0-2.14,3.2,10.21,10.21,0,0,0-.77,3.88V62.05h7.82V32.55h13.11c8.66,0,7.41-7.81,7.41-7.81Z"/><polygon class="cls-2" points="9.23 62.05 13.12 62.05 35.78 53.12 58.43 62.05 62.33 62.05 35.78 51.58 9.23 62.05"/><path class="cls-2" d="M55.45,55.69l-.09-9.59a.46.46,0,0,0,.23-.38.44.44,0,0,0-.2-.37.34.34,0,0,1,.28-.13V44.8s-.31,0-.37-.64h1V42.87H57l.68-2.14h-.53l.53-1.29H51.1V34.87l.71-1.34V32.29l.48-.74v-.62H51l-.24-.4c0-10.77-8.93-15.12-10-15.59L40.14,14l.23-.47h.37l.37-.77-.52-.47-.15-.42H39.09l.32-1.17h-.68l-.1-.14,0-2.83a.28.28,0,0,0,.07-.17.28.28,0,0,0-.12-.23v-.1h.08L39,6.44h-.5l.91-1.93h-.66a3.46,3.46,0,0,0-1.87-2.86v0h.06L36.54.8A.85.85,0,0,0,36,0l-.08,0h-.39l-.08,0a.87.87,0,0,0-.52.8l-.39.8h.07v0a3.48,3.48,0,0,0-1.87,2.86h-.62L33,6.44h-.49l.37.78H33v.14a.24.24,0,0,0-.07.18.28.28,0,0,0,.06.18l0,2.82-.1.15h-.74l.3,1.17H31.16l-.16.42-.59.47.37.77h.37l.23.47-.59.93c-.87.39-10,4.72-10,15.61l-.26.4H19.39l0,.62.54.75,0,1.23.55,1.34v4.57H13.89l.53,1.29h-.53l.7,2.14h.65l0,1.29h1c-.06.59-.36.63-.37.63v.42a.36.36,0,0,1,.32.18.44.44,0,0,0-.13.32.44.44,0,0,0,.23.38l-.09,9.59L0,62.05H3.89L35.78,49.47,67.67,62.05h3.9ZM36.33,3.28c.32,0,1.1,1,1.14,1.77v.09h-1V5.06A6.51,6.51,0,0,0,36.3,3.6c0-.08,0-.16,0-.23l0-.1Zm1,3.42v.08l0,3.88h-.65v-.08l0-3.88ZM34,5.05c0-.71.78-1.77,1.14-1.77h.1l0,.1c0,.06,0,.14,0,.21A6.7,6.7,0,0,0,35,5.06v.08H34Zm.89,1.65v.08l0,3.88h-.64v-.08l0-3.88Zm3.3,5.52-.15,1H33.52l-.15-1ZM32.45,14H39.1l.56,1H31.9ZM22.62,30c.11-9.5,8.51-13.25,8.87-13.4H33s-1,.45-1.27.63-8.11,4.41-7.89,12.09H28A16.83,16.83,0,0,1,33,17l.49-.41h.77l-.43.61a17.77,17.77,0,0,0-4.77,12.1h3.48c0-6.29,1.29-10.75,2-12.24l.21-.47h.93l-.15.57A41.57,41.57,0,0,0,33.67,29.3H37.9a41.57,41.57,0,0,0-1.84-12.14l-.16-.57h.94l.21.47A33.92,33.92,0,0,1,39,29.3H42.5a17.77,17.77,0,0,0-4.77-12.1l-.43-.61h.76l.5.41a16.83,16.83,0,0,1,5,12.3h4.15c.22-7.68-7.58-11.92-7.89-12.09s-1.27-.63-1.27-.63h1.5c.36.15,8.76,3.9,8.87,13.4v.34H22.61Zm-1.17,1.9h28.8v1H21.45Zm27.6,3.33v4.23h-.86V35.21c0-.2.11-.93.43-.93S49.05,35,49.05,35.21Zm-3.37,0v4.23H44.25V35.22s0-.94.66-.94S45.68,35.12,45.68,35.21Zm-3.94,0v4.23H39.58V35.22a.91.91,0,0,1,1-.94C41.64,34.28,41.74,35,41.74,35.21Zm-4.91,0v4.23h-2.1V35.22a1.06,1.06,0,0,1,2.1,0Zm-4.89,0v4.22h-2.1V35.22a1.06,1.06,0,0,1,2.1,0Zm-4.62,0v4.22H25.89V35.22c0-.1,0-.94.71-.94S27.31,35.11,27.32,35.22Zm-3.95,0v4.22h-.86V35.21c0-.2.1-.93.43-.93S23.37,35,23.37,35.22ZM20.82,53.84l-2.42.95-.06-8.7a.48.48,0,0,0,.2-.38.45.45,0,0,0-.18-.37.3.3,0,0,1,.25-.13v-.42s-.27,0-.33-.63h2.54c-.06.59-.32.63-.33.63v.42a.31.31,0,0,1,.28.18.48.48,0,0,0-.11.32.43.43,0,0,0,.2.38ZM25.45,52,23,53,23,46.09a.46.46,0,0,0,.21-.38.47.47,0,0,0-.18-.37.3.3,0,0,1,.25-.13v-.42s-.28,0-.33-.63h2.53c-.05.59-.31.63-.32.63v.42a.31.31,0,0,1,.28.18.48.48,0,0,0-.12.32.44.44,0,0,0,.21.38Zm4.65-1.83-2.47,1,0-5.06a.46.46,0,0,0,.2-.38.45.45,0,0,0-.18-.37.32.32,0,0,1,.26-.13v-.42s-.28,0-.33-.63h2.53c0,.59-.31.63-.32.63v.42a.3.3,0,0,1,.28.18.48.48,0,0,0-.11.32.44.44,0,0,0,.21.38Zm4.63-1.83-2.47,1,0-3.21a.47.47,0,0,0,0-.75.3.3,0,0,1,.25-.13v-.42s-.27-.07-.33-.66h2.54c-.06.59-.32.66-.33.66v.42a.32.32,0,0,1,.28.18.48.48,0,0,0-.11.32.43.43,0,0,0,.2.38Zm4.62,1-2.46-1,0-2.28a.46.46,0,0,0,.21-.38.47.47,0,0,0-.18-.37.3.3,0,0,1,.25-.13v-.42s-.28,0-.33-.63h2.53c0,.59-.31.63-.32.63v.42a.31.31,0,0,1,.28.18.48.48,0,0,0-.12.32.44.44,0,0,0,.21.38ZM44,51.17l-2.47-1,0-4.1a.46.46,0,0,0,.2-.38.45.45,0,0,0-.18-.37.31.31,0,0,1,.25-.13l0-.42s-.28,0-.33-.63H44c-.05.59-.31.63-.32.63v.42a.3.3,0,0,1,.28.18.48.48,0,0,0-.11.32.44.44,0,0,0,.21.38ZM48.58,53l-2.42-1-.06-5.94a.48.48,0,0,0,.2-.38.45.45,0,0,0-.18-.37.3.3,0,0,1,.25-.13v-.42s-.28,0-.33-.63h2.54c-.06.59-.32.63-.33.63v.42a.31.31,0,0,1,.28.18.48.48,0,0,0-.11.32.43.43,0,0,0,.2.38Zm4.62,1.82-2.42-1-.06-7.76a.46.46,0,0,0,.21-.38.47.47,0,0,0-.18-.37.3.3,0,0,1,.25-.13v-.42s-.28,0-.33-.63h2.53c-.05.59-.31.63-.32.63v.42a.31.31,0,0,1,.29.18.48.48,0,0,0-.12.32.44.44,0,0,0,.21.38ZM54.83,42.1H16.73l-.28-1H55.11Z"/></g></g></svg>