<svg xmlns="http://www.w3.org/2000/svg" viewBox="0 0 2993.19 2113.4"><defs><style>.cls-1{fill:#fff;}</style></defs><g id="Layer_2" data-name="Layer 2"><g id="full_logo" data-name="full logo"><path id="Outline" class="cls-1" d="M2776.12,1096.92H2536.54q5.41-7.1,10.66-14.43l.33-.45a383.72,383.72,0,0,0,20.81-32.44c8.49-7.67,25.63-20.79,31.84-25.54,18.63-14.26,36.24-27.73,51.6-44,6.74-7.11,27.26-28.74,71.15-105.11,22.75-39.56,43.9-80.3,53.94-103.87C2797,724,2820.77,624.64,2829.47,574l.16-.91c3.81-23.1,5.68-42.1,5.69-58.79,2.72-7.94,8-22,17.83-44.44,14.15-32.3,28.72-61.45,33.19-69.79,27.15-50.58,27.46-94.17,22.81-122.09l22.64-25-71.89-67.18a304.52,304.52,0,0,0-97.26-61.18c-39.23-15.37-82.36-23.17-128.18-23.17-12.57,0-25.46.6-38.6,1.78C2558.35,76.38,2515,54.55,2466.58,38,2393.55,13.05,2309.51.41,2216.8.41l-8.27,0c-8.39-.29-16.88-.44-25.3-.44-75.54,0-152.88,12-223.64,34.63-54.49,17.45-102.89,40.58-142.51,67.94q-17-1.42-33.7-1.43A370.51,370.51,0,0,0,1649,125.86v-9.52H756.52L717.94,284.71,675.68,116.34H451.34L409.66,282.42,372.05,116.34H0L305.82,1223.55H513l47.79-199.13,47.79,199.13H816.71l85.62-323.83v323.83h6.88V2113.4h756.08V1764.77h45.22V2113.4h347.4v-10.94l2.28,10.94h933V1096.92ZM1249.73,746.62h51.9V887.47h-51.9Zm6.88,1030.7v-51.43h61.29v51.43Zm453.9-680.4H1649v-298c11,22.15,25.61,49.42,41,76.17,43.81,76.22,64.35,97.94,71.2,105.13,15.54,16.37,33,29.75,51.59,43.92,6.36,4.86,24.24,18.52,32.45,26.12a548.46,548.46,0,0,0,31.46,46.7H1710.51Zm874,680.4v-51.43h61.28v51.43Z"/><g id="title"><path d="M131.37,216.34H292.16L403.38,707.53h2.68L529.34,216.34h68.34L721,707.53h2.68L836.2,216.34H979.57L739.72,1123.55H687.46l-126-524.88h-1.34l-126,524.88H381.94Z"/><path d="M1149.73,352.42V510.54h179.56L1328,646.62H1149.73V987.47h191.62v136.08h-339V646.62h-40.2l-26.8-136.08h67V216.34h339V352.42Z"/><path d="M1401.63,216.34H1549v907.21h-147.4Z"/><path d="M1156.61,1333v156.81h179.56l-1.34,136.08H1156.61v251.43h191.62V2013.4h-339V1196.92h339V1333Z"/><path d="M1565.29,1333v195.69h179.56l-1.34,136.08H1565.29V2013.4H1417.9V1196.92h339V1333Z"/><path d="M2291.56,2013.4H2141.48l-95.13-456.2c52.25-13,91.11-64.8,91.11-125.71,0-63.5-41.53-98.49-115.23-98.49h-64.32v680.4h-147.4V1196.92h237.18c143.37,0,238.51,99.79,238.51,228.09,0,80.56-32.76,146.26-89.31,182.91Z"/><path d="M2484.51,1333v156.81h179.55l-1.34,136.08H2484.51v251.43h191.61V2013.4h-339V1196.92h339V1333Z"/><path d="M2745.79,1196.92h147.4V2013.4h-147.4Z"/></g><path id="outline_logo" data-name="outline logo" d="M2791.61,258.79h0a204.78,204.78,0,0,0-65.47-41.13c-27.56-10.8-58.41-16.28-91.69-16.28a364.78,364.78,0,0,0-67.49,6.71c-35.12-32-79.63-57.32-132.71-75.45-62.6-21.38-135.77-32.22-217.46-32.22-3.2,0-6.4,0-9.63,0-7.93-.3-16-.45-23.94-.45-133.95,0-268.51,43.86-337.81,107.39a320.39,320.39,0,0,0-62-6.25c-52.55,0-92.35,14.12-116.49,26a202.59,202.59,0,0,0-32.92,20c-7.18,5.45-14.23,11.53-19.54,19.3-13,17.2-21,46.5.35,86.24,5.27,9.82,21.18,41.56,36.68,76.95,21.32,48.69,25.9,67.91,26.85,73.16-1.17,9.54-1.14,24.36,3.74,53.93,9,54.39,32.21,142.73,45.93,175,16.42,38.64,78.3,150.75,105.76,179.57,10,10.6,23.83,21.13,39.79,33.32,17.92,13.69,47.91,36.61,54.7,49.35l.54,1,.59,1c33,55.57,74.17,99.26,122.44,129.85,47.67,30.21,101.13,46.18,154.62,46.18h0c48.75,0,96-12.71,140.43-37.76,45-25.34,85-62.33,119-109.91l.11-.15a279,279,0,0,0,19.72-31.74C2493,980.14,2522,958,2539.4,944.65c16-12.27,29.89-22.87,39.83-33.37,27.55-29,89.24-140.79,105.68-179.45,14.8-34.53,37.25-123.8,46-174.79l.05-.3c4.88-29.52,4.91-44.33,3.74-53.89.94-5.24,5.52-24.47,26.85-73.16,15.5-35.39,31.41-67.13,36.68-77C2823.19,306.24,2808.07,274,2791.61,258.79Z"/><g id="logo"><path class="cls-1" d="M2507.08,224l.54.37Z"/><path class="cls-1" d="M2639,551.06c-21.25-4-61.21-39.34-93.53-34.72s-31.79,14-41.3,29.95,3.66,117.75-10.51,165.64-42.05,69.72-71.43,93.4-15.59,85.68-3.81,123a105.24,105.24,0,0,0,23.49,39.75c19.1-32.86,80.88-70,101-91.14,20.6-21.64,80.18-127.46,96-164.7,11.65-27.42,33.81-110.64,42.6-163.61C2667.71,551.07,2650.31,553.21,2639,551.06Z"/><path class="cls-1" d="M2500.89,219.86l1.84,1.21Z"/><path class="cls-1" d="M2504.25,222.08l1.38.93Z"/><path class="cls-1" d="M2382,948c-65.65-15-83.66-32.58-100.28-47.47s-15.29-38.78-15.29-38.78-4.69-34.3,1.32-64.11-33.5-116.46,13.78-181.86,33.56-122.72,33.56-122.72-69.6-87.38-59.6-176,103.06-153.08,103.06-153.08c61,12.88,105,32.91,135.5,51.6-50.73-31.16-139.32-66.08-281-65.34-2.21,0-4.4.1-6.54.27-2.15-.17-4.33-.25-6.56-.27-56.64-.29-104.8,5.11-145.45,13.69,0,0,93.06,64.42,103.06,153.08s-59.6,176-59.6,176-13.71,57.32,33.56,122.72,7.77,152,13.78,181.85,1.32,64.12,1.32,64.12,1.33,23.89-15.29,38.77S2096.66,933,2031,948c0,0-17.63,6.21-25.51,18-4.26,6.37-11.7,19-17.64,29.31a354.52,354.52,0,0,0,50.55,56.84c32.21-27,72.39-58.22,92.88-64.29,44.53-13.19,124.6-12.19,151-1.89,17.36,6.78,63,38.51,95,63.63a355.21,355.21,0,0,0,47.78-54.33c-5.93-10.27-13.33-22.87-17.58-29.21C2399.63,954.23,2382,948,2382,948Z"/><path class="cls-1" d="M1990.77,805.28c-29.38-23.68-57.25-45.53-71.42-93.41s-1-149.74-10.52-165.64-9-25.32-41.3-30S1795.25,547,1774,551c-11.32,2.15-28.79,0-42.62-2.48,8.79,53,31,136.24,42.62,163.68,15.82,37.24,75.4,143.06,96,164.7,20.12,21.12,81.92,58.3,101,91.16a105.15,105.15,0,0,0,23.56-39.83C2006.36,891,2020.15,829,1990.77,805.28Z"/><path class="cls-1" d="M2494.14,215.59c1,.62,2,1.24,3,1.86C2496.14,216.83,2495.15,216.21,2494.14,215.59Z"/><path class="cls-1" d="M2556.69,261.46c96.21-24.31,155,.76,182.37,18.84-27.34-18.08-86.14-43.23-182.46-18.9l-5.67,1.44.05.06Z"/><path class="cls-1" d="M2497.36,217.6l2.7,1.73C2499.18,218.75,2498.28,218.18,2497.36,217.6Z"/><path d="M2031,948c65.65-15,83.66-32.59,100.28-47.48s15.29-38.77,15.29-38.77,4.7-34.31-1.32-64.12,33.5-116.45-13.78-181.85S2097.92,493,2097.92,493s69.6-87.39,59.6-176-103.06-153.08-103.06-153.08C1915,193.32,1864,260.19,1862,262.85l-5.7-1.45c-140-35.38-200.8,33.86-200.8,33.86s-11,7.18,3.3,33.77,74.61,150.76,69.37,178.24c-1.38,7.24,0,22.31,3.18,41.26,13.83,2.48,31.3,4.63,42.62,2.48,21.25-4,61.21-39.35,93.53-34.73s31.8,14.05,41.3,30-3.66,117.75,10.52,165.64,42,69.73,71.42,93.41,15.59,85.68,3.81,123A105.15,105.15,0,0,1,1971,968.07c.48.81.92,1.62,1.34,2.43a222.34,222.34,0,0,0,15.5,24.75c5.94-10.28,13.38-22.94,17.64-29.31C2013.38,954.17,2031,948,2031,948ZM1814,315.33c-6.26-.63-26.07-.62-40,8.59-35.92,23.68-32.43,71.24-32.43,71.24-17.09-4.53-25.67-23.54-25.67-23.54s-5.34-11.78-5.85-29.93-1.36-34.64,30.82-53.35,97.22-1.48,97.22-1.48Zm192.64,401.21c-11.45-5.88-26.65-24.72-33.07-55.36S1987,610,1987,610c16,8.72,28.33,18.36,37.71,28.18,21.45,22.42,27.77,45.73,29.34,61a70.05,70.05,0,0,1-.06,17.34C2037.07,725,2018.06,722.42,2006.61,716.54Z"/><path class="cls-1" d="M1740.81,288.34c-32.18,18.71-31.33,35.19-30.82,53.35s5.85,29.93,5.85,29.93,8.58,19,25.67,23.54c0,0-3.49-47.56,32.43-71.24,14-9.21,33.77-9.22,40-8.59L1838,286.86S1773,269.63,1740.81,288.34Z"/><path class="cls-1" d="M2054,716.54a70.05,70.05,0,0,0,.06-17.34c-4.48,7.69-16,6.61-17.47,6.5-8.33-.62-9.73-1.65-23.33-6.87s-22.06-43.72-22.69-48.51,5-8.74,9.58-12.25,23.29,0,23.29,0,.47,0,1.28.09c-9.38-9.82-21.67-19.46-37.71-28.18,0,0-19.89,20.56-13.48,51.2s21.62,49.48,33.07,55.36S2037.07,725,2054,716.54Z"/><path d="M2000.16,638.07c-4.58,3.51-10.2,7.46-9.58,12.25s9.11,43.29,22.69,48.51,15,6.25,23.33,6.87c1.49.11,13,1.19,17.47-6.5-1.57-15.31-7.89-38.62-29.34-61-.81-.07-1.28-.09-1.28-.09S2004.74,634.56,2000.16,638.07Z"/><path d="M2502.73,221.07l1.52,1Z"/><path d="M2494.05,215.54l.09.05Z"/><path d="M2505.63,223l1.45,1Z"/><path d="M2497.12,217.45l.24.15Z"/><path d="M2500.06,219.33l.83.53Z"/><path d="M2757.48,295.31s-5.95-6.78-18.42-15c12.41,8.2,18.33,15,18.33,15s11,7.18-3.3,33.77-74.61,150.76-69.36,178.24c1.38,7.25-.05,22.35-3.21,41.33h.11c3.13-19,4.56-34,3.18-41.27-5.24-27.48,55.1-151.65,69.37-178.23S2757.48,295.31,2757.48,295.31Z"/><path d="M2550.89,262.85h0c-1.25-1.67-14.18-18.39-43.31-38.47C2537.05,244.67,2549.92,261.54,2550.89,262.85Z"/><path d="M2425.09,995.21l.06.1a222.28,222.28,0,0,0,15.5-24.76c.42-.81.87-1.62,1.34-2.43l-.07-.07c-.48.82-.93,1.63-1.35,2.45A222.38,222.38,0,0,1,2425.09,995.21Z"/><path d="M2684.73,507.27c-5.25-27.48,55.09-151.65,69.36-178.24s3.3-33.77,3.3-33.77-5.92-6.76-18.33-15c-27.37-18.08-86.16-43.15-182.37-18.84L2551,262.9l-.05-.06h0c-1-1.31-13.84-18.18-43.27-38.48l-.54-.37-1.45-1-1.38-.93-1.52-1-1.84-1.21-.83-.53-2.7-1.73-.24-.15c-1-.62-2-1.24-3-1.86l-.09-.05c-30.45-18.69-74.52-38.72-135.5-51.6,0,0-93.06,64.42-103.06,153.08s59.6,176.05,59.6,176.05,13.71,57.33-33.56,122.72-7.77,152.05-13.78,181.86-1.32,64.11-1.32,64.11-1.33,23.9,15.29,38.78S2316.35,933,2382,948c0,0,17.63,6.22,25.51,18,4.25,6.34,11.65,18.94,17.58,29.21a222.38,222.38,0,0,0,15.48-24.71c.42-.82.87-1.63,1.35-2.45a105.24,105.24,0,0,1-23.49-39.75c-11.78-37.29-25.57-99.29,3.81-123s57.25-45.52,71.43-93.4,1-149.75,10.51-165.64,9-25.33,41.3-29.95S2617.76,547,2639,551.06c11.3,2.15,28.7,0,42.51-2.46C2684.68,529.62,2686.11,514.52,2684.73,507.27Zm-245.18,154c-6.42,30.64-21.62,49.48-33.07,55.36s-30.45,8.48-47.39,0a69.69,69.69,0,0,1-.07-17.34c1.58-15.31,7.9-38.62,29.34-61,9.39-9.82,21.67-19.46,37.71-28.18C2426.07,610.05,2446,630.61,2439.55,661.25ZM2639.07,324c-14-9.21-33.77-9.22-40-8.59L2575,286.92s65.05-17.23,97.22,1.48,31.33,35.19,30.82,53.34-5.85,29.93-5.85,29.93-8.58,19-25.67,23.54C2671.5,395.21,2675,347.66,2639.07,324Z"/><path class="cls-1" d="M2697.17,371.67s5.34-11.77,5.85-29.93,1.36-34.63-30.82-53.34-97.22-1.48-97.22-1.48L2599,315.39c6.26-.63,26.07-.62,40,8.59,35.92,23.68,32.43,71.23,32.43,71.23C2688.59,390.68,2697.17,371.67,2697.17,371.67Z"/><path class="cls-1" d="M2388.36,638.23c.82-.07,1.28-.09,1.28-.09s18.72-3.51,23.29,0,10.21,7.46,9.59,12.25-9.11,43.29-22.7,48.51-15,6.25-23.32,6.87c-1.49.11-13,1.19-17.48-6.5a69.69,69.69,0,0,0,.07,17.34c16.94,8.48,35.95,5.88,47.39,0s26.65-24.72,33.07-55.36-13.48-51.2-13.48-51.2C2410,618.77,2397.75,628.41,2388.36,638.23Z"/><path d="M2376.5,705.77c8.33-.62,9.73-1.65,23.32-6.87s22.07-43.72,22.7-48.51-5-8.74-9.59-12.25-23.29,0-23.29,0-.46,0-1.28.09c-21.44,22.42-27.76,45.73-29.34,61C2363.51,707,2375,705.88,2376.5,705.77Z"/><path d="M2131.29,987.8c-20.49,6.07-60.67,37.26-92.88,64.29,40.34,36.52,97.22,70.34,167.84,70.88,0,0,.08-.27.22-.81.13.54.2.81.2.81,72.26-.55,130.15-36,170.64-73.43-32.07-25.12-77.68-56.85-95-63.63C2255.89,975.61,2175.82,974.61,2131.29,987.8ZM2174.6,1090s2.08-13.82-14.75-14.78-39.83-8.33-39.83-8.33-25.08-7.85-5.61-15.71c0,0,62.55-8.59,77.31,34.31C2191.72,1085.52,2192.9,1106.71,2174.6,1090Zm130.73-38.82c19.48,7.86-5.61,15.71-5.61,15.71s-23,7.38-39.82,8.33-14.76,14.78-14.76,14.78c-18.29,16.68-17.09-4.51-17.09-4.51C2242.78,1042.62,2305.33,1051.21,2305.33,1051.21Z"/><path class="cls-1" d="M2228.05,1085.52s-1.2,21.19,17.09,4.51c0,0-2-13.82,14.76-14.78s39.82-8.33,39.82-8.33,25.09-7.85,5.61-15.71C2305.33,1051.21,2242.78,1042.62,2228.05,1085.52Z"/><path class="cls-1" d="M2114.41,1051.21c-19.47,7.86,5.61,15.71,5.61,15.71s23,7.38,39.83,8.33S2174.6,1090,2174.6,1090c18.3,16.68,17.12-4.51,17.12-4.51C2177,1042.62,2114.41,1051.21,2114.41,1051.21Z"/></g></g></g></svg>