<svg width="76" height="91" viewBox="0 0 76 91" fill="none" xmlns="http://www.w3.org/2000/svg">
<path d="M0 67C0 71.18 1.8525 74.9325 4.75 77.545V86C4.75 88.6125 6.8875 90.75 9.5 90.75H14.25C16.8625 90.75 19 88.6125 19 86V81.25H57V86C57 88.6125 59.1375 90.75 61.75 90.75H66.5C69.1125 90.75 71.25 88.6125 71.25 86V77.545C74.1475 74.9325 76 71.18 76 67V19.5C76 2.875 58.995 0.5 38 0.5C17.005 0.5 0 2.875 0 19.5V67ZM16.625 71.75C12.6825 71.75 9.5 68.5675 9.5 64.625C9.5 60.6825 12.6825 57.5 16.625 57.5C20.5675 57.5 23.75 60.6825 23.75 64.625C23.75 68.5675 20.5675 71.75 16.625 71.75ZM59.375 71.75C55.4325 71.75 52.25 68.5675 52.25 64.625C52.25 60.6825 55.4325 57.5 59.375 57.5C63.3175 57.5 66.5 60.6825 66.5 64.625C66.5 68.5675 63.3175 71.75 59.375 71.75ZM66.5 43.25H9.5V19.5H66.5V43.25Z" fill="#D63341"/>
</svg>
