<svg width="76" height="98" viewBox="0 0 76 98" fill="none" xmlns="http://www.w3.org/2000/svg">
<path d="M37.9999 97.75C31.1583 91.9142 24.8168 85.5165 19.0416 78.6237C10.3749 68.2725 0.0832567 52.8566 0.0832567 38.1666C0.0794981 30.6643 2.30143 23.3296 6.46784 17.0905C10.6343 10.8515 16.5579 5.9887 23.489 3.11754C30.4202 0.246377 38.0473 -0.504084 45.4051 0.961133C52.763 2.42635 59.5207 6.04138 64.8232 11.3487C68.3536 14.8634 71.1518 19.0433 73.056 23.6466C74.9601 28.2499 75.9324 33.1851 75.9166 38.1666C75.9166 52.8566 65.6249 68.2725 56.9583 78.6237C51.183 85.5165 44.8415 91.9142 37.9999 97.75ZM37.9999 21.9166C33.6902 21.9166 29.5569 23.6287 26.5094 26.6762C23.462 29.7236 21.7499 33.8569 21.7499 38.1666C21.7499 42.4764 23.462 46.6097 26.5094 49.6571C29.5569 52.7046 33.6902 54.4166 37.9999 54.4166C42.3097 54.4166 46.4429 52.7046 49.4904 49.6571C52.5379 46.6097 54.2499 42.4764 54.2499 38.1666C54.2499 33.8569 52.5379 29.7236 49.4904 26.6762C46.4429 23.6287 42.3097 21.9166 37.9999 21.9166Z" fill="#D63341"/>
</svg>
