<svg width="223" height="229" viewBox="0 0 223 229" fill="none" xmlns="http://www.w3.org/2000/svg">
<path d="M218.993 4.63736C218.329 2.98297 217.052 1.64837 215.429 0.911203C213.806 0.174038 211.961 0.0910649 210.278 0.679544C208.595 1.26802 207.204 2.48265 206.394 4.07073C205.584 5.65881 205.417 7.49808 205.928 9.20591C216.565 39.7774 195.452 62.6087 179.353 74.8373L172.849 65.517C170.662 62.3912 165.773 59.792 161.972 59.7462L125.469 59.9065C121.01 60.0412 116.67 61.3783 112.909 63.7766L5.34723 139.198C2.84535 140.958 1.14301 143.639 0.612947 146.652C0.0828832 149.665 0.768283 152.765 2.51908 155.274L51.3991 225.21C55.0631 230.42 60.9141 229.79 66.1353 226.149L173.697 150.716C176.788 148.53 180.361 143.812 181.62 140.205L193.047 104.195C194.307 100.6 193.539 95.1153 191.353 91.9894L187.391 86.3102C209.008 69.7421 231.45 40.4644 218.993 4.63736ZM168.945 111.786C166.963 113.174 164.728 114.157 162.366 114.679C160.005 115.202 157.563 115.255 155.181 114.833C152.8 114.412 150.524 113.526 148.485 112.225C146.446 110.925 144.683 109.235 143.297 107.252C140.491 103.241 139.391 98.2799 140.239 93.4584C141.087 88.6369 143.813 84.3489 147.82 81.5356C150.96 79.3351 154.71 78.1709 158.545 78.2058C162.38 78.2407 166.108 79.4729 169.208 81.7302C166.094 83.608 163.953 84.7072 163.552 84.879C162.133 85.5557 160.985 86.6945 160.298 88.1087C159.61 89.5229 159.424 91.1287 159.768 92.6629C160.113 94.1971 160.968 95.5687 162.195 96.5531C163.421 97.5374 164.945 98.0761 166.517 98.0808C167.502 98.0808 168.51 97.8518 169.46 97.4053C171.681 96.3519 174.063 95.1038 176.548 93.6268C177.119 97.0625 176.709 100.59 175.364 103.802C174.019 107.015 171.794 109.783 168.945 111.786Z" fill="#D63341"/>
<path d="M63.6687 193.712L60.29 189.047C59.6142 188.114 59.1785 187.185 58.9826 186.26C58.7922 185.301 58.84 184.304 59.1262 183.267C59.4317 182.216 59.9695 181.056 60.7396 179.787L62.9834 176.072C63.5659 175.117 63.8657 174.263 63.8831 173.509C63.9199 172.742 63.6708 171.989 63.1359 171.25C62.6431 170.57 61.9946 170.165 61.1902 170.037C60.3912 169.875 59.5544 170.11 58.6797 170.744C57.7856 171.391 57.298 172.13 57.217 172.959C57.1218 173.769 57.377 174.592 57.9823 175.427L52.7342 179.228C51.7206 177.829 51.1209 176.367 50.9351 174.842C50.7493 173.317 51.0143 171.821 51.73 170.354C52.4652 168.874 53.6978 167.507 55.4277 166.254C57.1382 165.015 58.7948 164.275 60.3974 164.032C62.0054 163.757 63.4838 163.916 64.8325 164.51C66.1865 165.07 67.3281 165.991 68.2573 167.274L68.5107 167.624C69.7073 169.276 70.2457 170.961 70.1258 172.677C70.006 174.394 69.2645 176.398 67.9013 178.689L65.6575 182.403C65.3317 182.936 65.1367 183.403 65.0724 183.805C65.0275 184.193 65.1459 184.582 65.4274 184.97L66.1876 186.02L64.3427 186.112L75.801 177.813L79.1797 182.478L63.6687 193.712ZM92.2774 173.88C90.5475 175.133 88.8732 175.931 87.2544 176.274C85.6216 176.597 84.0716 176.564 82.6042 176.175C81.1229 175.766 79.747 175.073 78.4767 174.097C77.1923 173.101 76.0504 171.913 75.0509 170.533L73.8261 168.842C72.4183 166.898 71.4941 164.886 71.0536 162.804C70.613 160.723 70.774 158.695 71.5367 156.72C72.2993 154.746 73.7788 152.963 75.9752 151.372C78.1717 149.781 80.3172 148.938 82.4119 148.844C84.526 148.735 86.5031 149.214 88.3431 150.282C90.1832 151.35 91.8071 152.855 93.2149 154.799L94.4397 156.49C95.4392 157.87 96.2118 159.326 96.7576 160.857C97.2893 162.368 97.5183 163.891 97.4447 165.426C97.3765 166.928 96.9342 168.404 96.1179 169.854C95.2875 171.285 94.0074 172.628 92.2774 173.88ZM88.6453 168.866C90.0837 167.824 90.7867 166.544 90.7544 165.027C90.7221 163.509 89.9458 161.701 88.4254 159.601C86.8064 157.366 85.2854 156.023 83.8623 155.572C82.4252 155.102 81.0068 155.373 79.6073 156.387C78.1884 157.414 77.4783 158.684 77.4771 160.197C77.4618 161.689 78.2496 163.534 79.8404 165.73C81.3749 167.849 82.8651 169.17 84.3109 169.693C85.7622 170.183 87.207 169.907 88.6453 168.866ZM114.686 157.651C112.956 158.904 111.281 159.702 109.663 160.044C108.03 160.368 106.48 160.335 105.012 159.945C103.531 159.537 102.155 158.844 100.885 157.867C99.6004 156.871 98.4585 155.683 97.4589 154.303L96.2341 152.612C94.8264 150.669 93.9022 148.656 93.4616 146.575C93.0211 144.494 93.1821 142.466 93.9447 140.491C94.7073 138.516 96.1869 136.733 98.3833 135.142C100.58 133.552 102.725 132.709 104.82 132.614C106.934 132.505 108.911 132.985 110.751 134.053C112.591 135.12 114.215 136.626 115.623 138.57L116.848 140.261C117.847 141.641 118.62 143.096 119.166 144.627C119.697 146.139 119.926 147.662 119.853 149.197C119.785 150.698 119.342 152.174 118.526 153.625C117.696 155.056 116.415 156.398 114.686 157.651ZM111.053 152.636C112.492 151.594 113.195 150.315 113.163 148.797C113.13 147.28 112.354 145.471 110.833 143.372C109.214 141.137 107.693 139.794 106.27 139.343C104.833 138.872 103.415 139.144 102.015 140.157C100.596 141.185 99.8864 142.455 99.8852 143.967C99.8699 145.46 100.658 147.305 102.248 149.501C103.783 151.62 105.273 152.941 106.719 153.464C108.17 153.954 109.615 153.678 111.053 152.636ZM137.43 141.089C134.437 143.257 131.482 144.004 128.565 143.332C125.653 142.625 122.881 140.455 120.248 136.82L119.952 136.412C117.306 132.758 116.088 129.461 116.301 126.522C116.532 123.568 118.135 121.015 121.109 118.861C122.975 117.509 124.753 116.711 126.442 116.465C128.136 116.186 129.703 116.385 131.141 117.062C132.585 117.706 133.864 118.735 134.978 120.151L130.313 123.529C129.532 122.614 128.626 122.099 127.595 121.986C126.571 121.839 125.436 122.217 124.192 123.118C122.618 124.258 121.87 125.599 121.95 127.142C122.05 128.67 123.007 130.688 124.823 133.195C126.639 135.702 128.277 137.228 129.737 137.77C131.217 138.299 132.753 137.986 134.347 136.832C135.611 135.917 136.34 134.959 136.534 133.959C136.734 132.926 136.52 131.895 135.894 130.866L140.559 127.488C141.543 128.968 142.122 130.505 142.297 132.097C142.491 133.674 142.199 135.235 141.42 136.777C140.646 138.286 139.316 139.723 137.43 141.089ZM120.691 141.789L118.875 139.282L131.441 130.18L133.257 132.688L120.691 141.789ZM118.006 136.977L116.19 134.47L128.756 125.368L130.572 127.876L118.006 136.977Z" fill="white"/>
<path d="M40.1764 158.969L35.0669 151.78L37.341 150.164L42.4506 157.353L40.1764 158.969ZM32.7954 153.763L31.3876 151.782L38.5524 146.69L39.9601 148.67L32.7954 153.763ZM49.5651 152.297L48.1574 150.316L47.7906 150.577L46.2873 148.461C46.0671 148.152 45.8316 147.976 45.5806 147.933C45.3319 147.877 45.0446 147.964 44.7185 148.196C44.5637 148.306 44.3383 148.473 44.0425 148.695C43.7468 148.918 43.4375 149.156 43.1149 149.409C42.7923 149.663 42.4983 149.897 42.2327 150.11L40.9119 148.252C41.0959 148.096 41.3166 147.915 41.574 147.707C41.8314 147.5 42.0999 147.291 42.3794 147.08C42.667 146.863 42.9331 146.668 43.1776 146.494C43.8705 146.002 44.5298 145.687 45.1555 145.548C45.7894 145.405 46.3775 145.447 46.9198 145.675C47.4703 145.897 47.9686 146.322 48.4147 146.949L51.3257 151.045L49.5651 152.297ZM47.5471 153.989C47.0744 154.325 46.5937 154.537 46.1053 154.627C45.6168 154.716 45.1537 154.677 44.7158 154.51C44.2803 154.329 43.9033 154.014 43.5846 153.566C43.2255 153.061 43.0703 152.557 43.1191 152.056C43.1622 151.547 43.368 151.052 43.7365 150.569C44.1049 150.086 44.5948 149.627 45.2062 149.193L46.5144 148.263L47.3312 149.412L46.023 150.342C45.7214 150.557 45.5441 150.799 45.4912 151.07C45.4325 151.332 45.4929 151.59 45.6725 151.843C45.8463 152.087 46.0697 152.229 46.3428 152.268C46.6101 152.299 46.8945 152.207 47.1961 151.993C47.3917 151.854 47.5397 151.7 47.6401 151.53C47.7428 151.347 47.7823 151.135 47.7584 150.894C47.7346 150.653 47.6237 150.376 47.4256 150.063L48.2867 150.187C48.5762 150.681 48.743 151.157 48.7873 151.616C48.8339 152.062 48.755 152.486 48.5506 152.889C48.3544 153.286 48.0199 153.653 47.5471 153.989ZM52.8126 149.989L48.0159 143.24L49.7765 141.988L51.862 144.923L51.8376 144.94C51.1656 143.994 50.834 143.114 50.8429 142.298C50.86 141.476 51.2394 140.801 51.9811 140.274L52.2501 140.083L53.6057 141.99L53.0922 142.355C52.595 142.709 52.3034 143.118 52.2174 143.584C52.1396 144.044 52.2803 144.527 52.6395 145.033L55.0378 148.407L52.8126 149.989ZM58.3125 146.08L53.5158 139.331L55.741 137.749L60.5377 144.498L58.3125 146.08ZM53.8069 141.553L52.6599 139.939L55.741 137.749L56.888 139.363L53.8069 141.553ZM54.0504 138.141C53.6428 138.431 53.2688 138.543 52.9284 138.478C52.5903 138.4 52.3054 138.197 52.0737 137.871C51.8419 137.545 51.7474 137.214 51.79 136.877C51.835 136.526 52.0572 136.208 52.4566 135.924C52.8642 135.635 53.237 135.529 53.5751 135.608C53.9074 135.678 54.1894 135.877 54.4212 136.203C54.6529 136.529 54.7503 136.864 54.7135 137.21C54.6708 137.547 54.4498 137.857 54.0504 138.141ZM62.3203 143.231L57.541 136.507C56.979 135.716 56.7902 134.967 56.9743 134.259C57.1527 133.544 57.6902 132.867 58.5868 132.23L59.4549 131.613L60.6193 133.251L59.7024 133.903C59.5067 134.042 59.3936 134.202 59.3629 134.384C59.3323 134.565 59.3865 134.753 59.5255 134.949L64.3744 141.771L62.3203 143.231ZM58.0169 138.782L56.8698 137.168L61.3081 134.013L62.4551 135.627L58.0169 138.782ZM73.4332 135.333L72.0255 133.352L71.6587 133.613L70.1554 131.498C69.9352 131.188 69.6997 131.012 69.4487 130.97C69.2 130.913 68.9127 131.001 68.5866 131.233C68.4318 131.343 68.2064 131.509 67.9106 131.731C67.6148 131.954 67.3056 132.192 66.983 132.446C66.6604 132.7 66.3664 132.933 66.1008 133.147L64.78 131.288C64.964 131.133 65.1847 130.951 65.4421 130.744C65.6995 130.536 65.968 130.327 66.2475 130.116C66.5351 129.9 66.8012 129.704 67.0457 129.531C67.7386 129.038 68.3979 128.723 69.0236 128.585C69.6575 128.441 70.2456 128.483 70.7879 128.711C71.3384 128.933 71.8367 129.358 72.2828 129.986L75.1938 134.082L73.4332 135.333ZM71.4152 137.025C70.9424 137.361 70.4618 137.574 69.9734 137.663C69.4849 137.753 69.0218 137.714 68.5839 137.547C68.1484 137.365 67.7714 137.051 67.4527 136.602C67.0936 136.097 66.9384 135.594 66.9872 135.093C67.0303 134.584 67.2361 134.088 67.6045 133.605C67.973 133.122 68.4629 132.664 69.0743 132.229L70.3825 131.3L71.1993 132.449L69.8911 133.379C69.5895 133.593 69.4122 133.836 69.3593 134.106C69.3005 134.369 69.361 134.627 69.5406 134.879C69.7143 135.124 69.9378 135.266 70.2109 135.305C70.4782 135.335 70.7626 135.244 71.0642 135.029C71.2598 134.89 71.4078 134.736 71.5082 134.567C71.6109 134.383 71.6504 134.171 71.6265 133.93C71.6027 133.69 71.4918 133.413 71.2937 133.1L72.1548 133.224C72.4443 133.717 72.6111 134.194 72.6554 134.653C72.702 135.098 72.6231 135.522 72.4187 135.925C72.2225 136.322 71.888 136.689 71.4152 137.025ZM76.6807 133.025L71.884 126.276L73.6446 125.025L75.7041 127.922L75.6063 127.992C75.108 127.291 74.7864 126.648 74.6413 126.064C74.4904 125.472 74.5091 124.938 74.6974 124.46C74.8938 123.977 75.2448 123.556 75.7501 123.197L75.8479 123.127C76.6141 122.583 77.3876 122.42 78.1682 122.638C78.9513 122.842 79.7164 123.47 80.4637 124.521L83.2097 128.385L80.9845 129.966L78.1951 126.041C77.9749 125.732 77.7016 125.546 77.3751 125.483C77.0509 125.407 76.7299 125.482 76.412 125.708C76.0941 125.934 75.9098 126.218 75.859 126.561C75.8106 126.89 75.9022 127.217 76.1339 127.543L78.9059 131.443L76.6807 133.025ZM87.9593 125.377C87.3724 125.794 86.7963 126.063 86.2311 126.182C85.6601 126.294 85.112 126.29 84.5868 126.173C84.0698 126.05 83.5902 125.832 83.148 125.521C82.714 125.204 82.3377 124.821 82.0191 124.373L81.8453 124.128C81.5093 123.655 81.264 123.155 81.1095 122.627C80.9631 122.093 80.9208 121.559 80.9825 121.024C81.0442 120.489 81.2244 119.975 81.5232 119.48C81.822 118.986 82.2526 118.539 82.815 118.139C83.4345 117.699 84.0675 117.433 84.714 117.341C85.3606 117.25 85.976 117.322 86.5601 117.557C87.1467 117.778 87.6532 118.154 88.0797 118.685L85.9034 120.232C85.6878 119.98 85.4237 119.824 85.1111 119.764C84.8067 119.699 84.4874 119.784 84.1532 120.022C83.8679 120.225 83.6837 120.466 83.6005 120.746C83.5254 121.02 83.5358 121.319 83.6315 121.644C83.7272 121.969 83.9025 122.31 84.1574 122.669C84.3949 123.003 84.643 123.274 84.9018 123.483C85.1687 123.686 85.4439 123.797 85.7275 123.816C86.0135 123.822 86.3113 123.714 86.6211 123.494C86.8493 123.332 87.0119 123.155 87.1088 122.964C87.2058 122.772 87.2469 122.571 87.2323 122.361C87.2119 122.142 87.1415 121.922 87.0211 121.701L89.1975 120.154C89.5704 120.748 89.7636 121.365 89.7772 122.006C89.799 122.64 89.6563 123.251 89.3492 123.837C89.0421 124.424 88.5788 124.937 87.9593 125.377ZM92.5206 121.767L87.7239 115.018L89.9491 113.437L94.7459 120.186L92.5206 121.767ZM88.0151 117.24L86.868 115.626L89.9491 113.437L91.0962 115.051L88.0151 117.24ZM88.2585 113.828C87.851 114.118 87.477 114.231 87.1365 114.166C86.7984 114.087 86.5135 113.885 86.2818 113.559C86.0501 113.233 85.9555 112.901 85.9982 112.564C86.0432 112.213 86.2654 111.896 86.6648 111.612C87.0723 111.322 87.4452 111.217 87.7833 111.295C88.1156 111.366 88.3976 111.564 88.6293 111.89C88.861 112.216 88.9585 112.552 88.9216 112.897C88.879 113.234 88.658 113.545 88.2585 113.828ZM99.7222 117.017C99.1516 117.422 98.5768 117.684 97.9976 117.801C97.4184 117.918 96.8592 117.917 96.3201 117.797C95.781 117.677 95.2822 117.467 94.8237 117.168C94.3734 116.862 93.9918 116.489 93.679 116.049L93.5052 115.804C93.1808 115.348 92.9483 114.857 92.8077 114.331C92.6695 113.791 92.6313 113.254 92.693 112.72C92.7628 112.179 92.9471 111.662 93.2459 111.167C93.5389 110.664 93.9584 110.219 94.5045 109.831C95.23 109.315 95.9613 109.041 96.6983 109.008C97.4354 108.975 98.1296 109.132 98.781 109.478C99.4265 109.817 99.9723 110.3 100.418 110.928L100.922 111.637L94.9558 115.877L94.1042 114.679L98.787 111.351L98.3991 112.437C98.1268 112.053 97.845 111.769 97.5537 111.584C97.2647 111.384 96.969 111.288 96.6668 111.294C96.3727 111.294 96.0748 111.402 95.7732 111.616C95.4798 111.825 95.2723 112.076 95.1507 112.371C95.0315 112.652 95.0133 112.972 95.0961 113.33C95.1732 113.68 95.3594 114.063 95.6549 114.479C95.9214 114.854 96.2061 115.142 96.509 115.344C96.8061 115.538 97.1169 115.63 97.4412 115.62C97.7656 115.61 98.103 115.481 98.4535 115.232C98.7633 115.012 98.9783 114.779 99.0986 114.534C99.2271 114.283 99.2683 114.039 99.2224 113.802L101.252 112.36C101.479 112.886 101.573 113.432 101.534 113.999C101.504 114.561 101.337 115.103 101.033 115.625C100.738 116.142 100.301 116.606 99.7222 117.017ZM104.059 113.567L99.2624 106.817L101.023 105.566L103.083 108.464L102.985 108.533C102.487 107.832 102.165 107.19 102.02 106.606C101.869 106.014 101.888 105.479 102.076 105.002C102.272 104.519 102.623 104.098 103.129 103.738L103.226 103.669C103.993 103.124 104.766 102.961 105.547 103.179C106.33 103.383 107.095 104.011 107.842 105.063L110.588 108.926L108.363 110.508L105.574 106.583C105.353 106.273 105.08 106.087 104.754 106.025C104.429 105.949 104.108 106.023 103.79 106.249C103.473 106.475 103.288 106.76 103.237 107.102C103.189 107.431 103.281 107.759 103.512 108.085L106.284 111.985L104.059 113.567ZM114.917 106.181C113.939 106.876 113.027 107.224 112.18 107.224C111.328 107.216 110.621 106.86 110.059 106.156L112.015 104.765C112.193 104.946 112.444 105.031 112.768 105.022C113.092 105.012 113.454 104.865 113.854 104.581C114.139 104.378 114.354 104.164 114.5 103.938C114.648 103.697 114.653 103.479 114.514 103.284C114.392 103.113 114.212 103.032 113.974 103.042C113.73 103.044 113.377 103.178 112.916 103.444L112.417 103.725C111.489 104.25 110.685 104.465 110.006 104.372C109.326 104.278 108.78 103.942 108.369 103.363C108.016 102.866 107.848 102.372 107.867 101.88C107.88 101.38 108.044 100.895 108.36 100.425C108.676 99.9551 109.112 99.5231 109.666 99.1291C110.571 98.4861 111.442 98.1673 112.28 98.1728C113.112 98.1701 113.809 98.5281 114.368 99.2466L112.412 100.637C112.235 100.456 112.003 100.363 111.717 100.358C111.425 100.345 111.104 100.462 110.754 100.712C110.501 100.891 110.325 101.084 110.226 101.289C110.134 101.489 110.147 101.67 110.263 101.833C110.384 102.004 110.548 102.079 110.752 102.056C110.965 102.027 111.253 101.915 111.616 101.718L112.115 101.437C113.043 100.912 113.878 100.681 114.621 100.742C115.366 100.789 115.962 101.126 116.408 101.754C116.738 102.218 116.895 102.707 116.88 103.221C116.873 103.729 116.701 104.238 116.364 104.748C116.035 105.251 115.553 105.729 114.917 106.181Z" fill="white"/>
</svg>
