<svg width="223" height="229" viewBox="0 0 223 229" fill="none" xmlns="http://www.w3.org/2000/svg">
<path d="M218.993 4.63736C218.328 2.98297 217.052 1.64837 215.429 0.911203C213.805 0.174038 211.96 0.0910649 210.278 0.679544C208.595 1.26802 207.203 2.48265 206.393 4.07073C205.583 5.65881 205.417 7.49808 205.928 9.20591C216.565 39.7774 195.451 62.6087 179.353 74.8373L172.849 65.517C170.662 62.3912 165.773 59.792 161.972 59.7462L125.469 59.9065C121.01 60.0412 116.67 61.3783 112.908 63.7766L5.34699 139.198C2.8451 140.958 1.14277 143.639 0.612703 146.652C0.082639 149.665 0.768039 152.765 2.51884 155.274L51.3989 225.21C55.0629 230.42 60.9138 229.79 66.135 226.149L173.696 150.716C176.788 148.53 180.36 143.812 181.62 140.205L193.047 104.195C194.306 100.6 193.539 95.1153 191.352 91.9894L187.391 86.3102C209.008 69.7421 231.45 40.4644 218.993 4.63736ZM168.945 111.786C166.963 113.174 164.728 114.157 162.366 114.679C160.004 115.202 157.563 115.255 155.181 114.833C152.799 114.412 150.524 113.526 148.485 112.225C146.445 110.925 144.682 109.235 143.297 107.252C140.491 103.241 139.391 98.2799 140.239 93.4584C141.087 88.6369 143.813 84.3489 147.819 81.5356C150.96 79.3351 154.71 78.1709 158.545 78.2058C162.38 78.2407 166.108 79.4729 169.208 81.7302C166.094 83.608 163.952 84.7072 163.552 84.879C162.132 85.5557 160.985 86.6945 160.297 88.1087C159.61 89.5229 159.423 91.1287 159.768 92.6629C160.113 94.1971 160.968 95.5687 162.194 96.5531C163.421 97.5374 164.945 98.0761 166.517 98.0808C167.502 98.0808 168.51 97.8518 169.46 97.4053C171.681 96.3519 174.063 95.1038 176.547 93.6268C177.119 97.0625 176.709 100.59 175.364 103.802C174.018 107.015 171.793 109.783 168.945 111.786Z" fill="#D63341"/>
<path d="M70.9915 188.408L58.2792 170.856L60.28 170.918L55.0319 174.719L51.611 169.996L60.9993 163.196L76.4145 184.48L70.9915 188.408ZM72.5379 153.862C74.1123 152.721 75.663 151.998 77.1899 151.692C78.7222 151.353 80.1955 151.382 81.6098 151.78C83.0436 152.164 84.386 152.852 85.6368 153.842C86.893 154.799 88.035 155.987 89.0627 157.406L89.9074 158.573C92.5118 162.168 93.5383 165.529 92.9869 168.655C92.4355 171.781 90.3424 174.66 86.7076 177.292C85.9884 177.813 85.2357 178.329 84.4495 178.839C83.6633 179.349 82.9116 179.804 82.1944 180.205L78.9002 175.657C79.5839 175.251 80.3453 174.788 81.1845 174.269C82.0095 173.731 82.8108 173.18 83.5883 172.617C85.085 171.533 86.0823 170.455 86.5803 169.383C87.0976 168.297 87.1766 167.159 86.8173 165.967C86.4773 164.761 85.7794 163.429 84.7236 161.971L82.9075 159.464L84.0315 158.561C85.0539 160.013 85.6254 161.437 85.7462 162.831C85.8723 164.192 85.606 165.481 84.9472 166.699C84.2884 167.917 83.2981 169.005 81.9764 169.962C80.4797 171.046 78.9662 171.698 77.436 171.917C75.911 172.103 74.4602 171.879 73.0833 171.247C71.7065 170.614 70.4831 169.559 69.4132 168.082C68.2588 166.488 67.6286 164.84 67.5225 163.139C67.4218 161.404 67.8001 159.738 68.6572 158.139C69.5144 156.54 70.808 155.114 72.5379 153.862ZM75.9648 158.225C75.1873 158.788 74.6153 159.41 74.2487 160.09C73.9015 160.756 73.7484 161.445 73.7894 162.156C73.8498 162.853 74.1122 163.523 74.5768 164.164C75.0555 164.825 75.6165 165.293 76.26 165.568C76.8895 165.823 77.5749 165.89 78.3162 165.767C79.0575 165.645 79.8072 165.31 80.5653 164.761C81.2456 164.268 81.7928 163.694 82.207 163.038C82.6212 162.383 82.8343 161.695 82.8463 160.975C82.8442 160.236 82.5757 159.497 82.0408 158.758C81.5762 158.117 81.0222 157.659 80.3787 157.384C79.7351 157.109 79.033 157.04 78.2722 157.176C77.5309 157.298 76.7618 157.648 75.9648 158.225ZM110.628 160.59C108.898 161.843 107.224 162.64 105.605 162.983C103.972 163.306 102.422 163.273 100.955 162.884C99.4736 162.475 98.0977 161.782 96.8274 160.806C95.543 159.81 94.4011 158.622 93.4016 157.242L92.1768 155.551C90.769 153.607 89.8448 151.595 89.4042 149.513C88.9637 147.432 89.1247 145.404 89.8873 143.429C90.65 141.455 92.1295 139.672 94.3259 138.081C96.5224 136.49 98.6679 135.648 100.763 135.553C102.877 135.444 104.854 135.924 106.694 136.991C108.534 138.059 110.158 139.564 111.566 141.508L112.79 143.199C113.79 144.579 114.563 146.035 115.108 147.566C115.64 149.077 115.869 150.6 115.795 152.135C115.727 153.637 115.285 155.113 114.469 156.564C113.638 157.995 112.358 159.337 110.628 160.59ZM106.996 155.575C108.434 154.533 109.137 153.253 109.105 151.736C109.073 150.218 108.296 148.41 106.776 146.311C105.157 144.075 103.636 142.732 102.213 142.281C100.776 141.811 99.3575 142.082 97.958 143.096C96.5391 144.124 95.829 145.394 95.8278 146.906C95.8125 148.399 96.6003 150.243 98.1911 152.44C99.7256 154.558 101.216 155.879 102.662 156.403C104.113 156.892 105.558 156.617 106.996 155.575ZM133.373 144.027C130.38 146.195 127.424 146.943 124.507 146.27C121.595 145.564 118.823 143.393 116.191 139.759L115.895 139.351C113.248 135.696 112.031 132.4 112.243 129.46C112.475 126.507 114.078 123.953 117.052 121.799C118.918 120.448 120.695 119.649 122.384 119.404C124.079 119.125 125.645 119.324 127.084 120.001C128.528 120.644 129.807 121.674 130.921 123.089L126.256 126.468C125.474 125.552 124.568 125.038 123.538 124.925C122.513 124.778 121.379 125.155 120.135 126.056C118.56 127.196 117.813 128.538 117.893 130.08C117.992 131.608 118.95 133.626 120.766 136.134C122.582 138.641 124.22 140.166 125.68 140.709C127.159 141.238 128.696 140.925 130.29 139.771C131.553 138.855 132.282 137.898 132.477 136.898C132.676 135.864 132.463 134.833 131.837 133.805L136.502 130.426C137.485 131.907 138.065 133.443 138.24 135.035C138.434 136.613 138.142 138.173 137.362 139.716C136.588 141.225 135.258 142.662 133.373 144.027ZM116.633 144.728L114.817 142.22L127.384 133.119L129.2 135.626L116.633 144.728ZM113.948 139.916L112.132 137.408L124.699 128.307L126.515 130.814L113.948 139.916Z" fill="white"/>
<path d="M34.3318 163.123L29.2223 155.934L31.4964 154.318L36.6059 161.507L34.3318 163.123ZM26.9507 157.917L25.543 155.936L32.7078 150.844L34.1155 152.824L26.9507 157.917ZM43.7205 156.451L42.3127 154.47L41.9459 154.731L40.4426 152.615C40.2225 152.306 39.9869 152.13 39.7359 152.087C39.4873 152.031 39.1999 152.118 38.8739 152.35C38.719 152.46 38.4937 152.626 38.1979 152.849C37.9021 153.071 37.5929 153.31 37.2703 153.563C36.9477 153.817 36.6536 154.051 36.3881 154.264L35.0672 152.406C35.2513 152.25 35.472 152.069 35.7294 151.861C35.9868 151.654 36.2552 151.445 36.5347 151.234C36.8224 151.017 37.0885 150.822 37.333 150.648C38.0258 150.156 38.6851 149.84 39.3109 149.702C39.9448 149.559 40.5329 149.601 41.0752 149.829C41.6257 150.051 42.124 150.476 42.5701 151.103L45.4811 155.199L43.7205 156.451ZM41.7025 158.142C41.2297 158.478 40.7491 158.691 40.2607 158.781C39.7722 158.87 39.309 158.831 38.8712 158.664C38.4357 158.483 38.0586 158.168 37.74 157.72C37.3808 157.214 37.2257 156.711 37.2745 156.21C37.3176 155.701 37.5233 155.205 37.8918 154.723C38.2603 154.24 38.7502 153.781 39.3615 153.347L40.6698 152.417L41.4866 153.566L40.1784 154.496C39.8768 154.711 39.6995 154.953 39.6466 155.224C39.5878 155.486 39.6482 155.744 39.8278 155.997C40.0016 156.241 40.2251 156.383 40.4981 156.422C40.7654 156.453 41.0499 156.361 41.3515 156.147C41.5471 156.008 41.6951 155.853 41.7955 155.684C41.8982 155.501 41.9377 155.289 41.9138 155.048C41.89 154.807 41.779 154.53 41.581 154.217L42.4421 154.341C42.7315 154.835 42.8984 155.311 42.9426 155.77C42.9892 156.216 42.9104 156.64 42.706 157.043C42.5097 157.44 42.1752 157.806 41.7025 158.142ZM46.968 154.142L42.1713 147.393L43.9319 146.142L46.0174 149.076L45.993 149.094C45.321 148.148 44.9894 147.268 44.9983 146.452C45.0154 145.63 45.3948 144.955 46.1365 144.428L46.4055 144.237L47.7611 146.144L47.2476 146.509C46.7504 146.863 46.4588 147.272 46.3728 147.738C46.295 148.198 46.4357 148.681 46.7948 149.186L49.1932 152.561L46.968 154.142ZM52.4678 150.234L47.6711 143.485L49.8963 141.903L54.6931 148.652L52.4678 150.234ZM47.9623 145.707L46.8153 144.093L49.8963 141.903L51.0434 143.517L47.9623 145.707ZM48.2058 142.295C47.7982 142.585 47.4242 142.697 47.0838 142.632C46.7457 142.554 46.4607 142.351 46.229 142.025C45.9973 141.699 45.9028 141.368 45.9454 141.031C45.9904 140.68 46.2126 140.362 46.612 140.078C47.0196 139.789 47.3924 139.683 47.7305 139.762C48.0628 139.832 48.3448 140.031 48.5765 140.357C48.8082 140.683 48.9057 141.018 48.8688 141.364C48.8262 141.701 48.6052 142.011 48.2058 142.295ZM56.4757 147.385L51.6963 140.661C51.1344 139.87 50.9455 139.121 51.1297 138.413C51.3081 137.698 51.8456 137.021 52.7422 136.384L53.6103 135.767L54.7747 137.405L53.8577 138.057C53.6621 138.196 53.549 138.356 53.5183 138.538C53.4876 138.719 53.5418 138.907 53.6809 139.103L58.5297 145.925L56.4757 147.385ZM52.1722 142.935L51.0252 141.322L55.4634 138.167L56.6105 139.781L52.1722 142.935ZM66.8454 140.383C66.2748 140.789 65.6999 141.05 65.1207 141.167C64.5415 141.285 63.9824 141.283 63.4433 141.163C62.9042 141.044 62.4054 140.834 61.9469 140.534C61.4966 140.228 61.115 139.855 60.8022 139.415L60.6284 139.171C60.304 138.714 60.0715 138.223 59.9309 137.697C59.7927 137.158 59.7544 136.62 59.8161 136.086C59.886 135.545 60.0703 135.028 60.3691 134.533C60.662 134.031 61.0816 133.585 61.6277 133.197C62.3532 132.682 63.0844 132.407 63.8215 132.374C64.5586 132.341 65.2528 132.498 65.9041 132.845C66.5497 133.183 67.0955 133.666 67.5416 134.294L68.0456 135.003L62.079 139.244L61.2274 138.046L65.9102 134.717L65.5222 135.803C65.25 135.42 64.9682 135.135 64.6768 134.95C64.3878 134.75 64.0922 134.654 63.7899 134.66C63.4958 134.661 63.198 134.768 62.8964 134.982C62.603 135.191 62.3954 135.443 62.2739 135.738C62.1546 136.019 62.1364 136.338 62.2193 136.697C62.2963 137.047 62.4826 137.43 62.778 137.845C63.0445 138.22 63.3292 138.509 63.6322 138.71C63.9293 138.904 64.24 138.996 64.5644 138.986C64.8888 138.977 65.2262 138.847 65.5767 138.598C65.8864 138.378 66.1014 138.145 66.2218 137.9C66.3502 137.65 66.3915 137.406 66.3455 137.168L68.3752 135.726C68.6018 136.252 68.6958 136.798 68.6573 137.366C68.6269 137.927 68.4599 138.469 68.1564 138.991C67.8611 139.508 67.4241 139.972 66.8454 140.383ZM60.192 133.482L59.4501 130.107L61.7243 128.491L62.1482 132.091L60.192 133.482ZM74.4674 134.745C73.7338 135.267 73.0832 135.594 72.5156 135.728C71.9562 135.855 71.4309 135.781 70.9398 135.504C70.4488 135.227 69.9512 134.735 69.4472 134.025L65.3666 128.258L67.4207 126.798L71.5447 132.627C71.7591 132.928 72.0016 133.106 72.2723 133.158C72.5454 133.198 72.8328 133.11 73.1344 132.895L74.0636 132.235L75.3844 134.094L74.4674 134.745ZM66.7746 132.336L65.6276 130.723L70.5182 127.247L71.6652 128.861L66.7746 132.336ZM78.9259 131.761C78.1597 132.305 77.388 132.479 76.6107 132.283C75.8359 132.073 75.0806 131.451 74.3448 130.416L71.5641 126.503L73.7894 124.922L76.6135 128.895C76.8279 129.197 77.0913 129.378 77.4039 129.438C77.7165 129.498 78.0235 129.421 78.3251 129.206C78.6267 128.992 78.8046 128.724 78.8589 128.404C78.9131 128.083 78.8272 127.764 78.6013 127.446L75.7945 123.497L78.0198 121.915L82.8165 128.664L81.0559 129.915L79.0398 127.079L79.1621 126.992C79.6545 127.685 79.9733 128.323 80.1184 128.907C80.2658 129.477 80.2466 129.994 80.0607 130.457C79.8747 130.921 79.5291 131.332 79.0237 131.691L78.9259 131.761ZM87.3915 125.744C86.9187 126.08 86.4259 126.301 85.913 126.408C85.4082 126.509 84.906 126.51 84.4064 126.412C83.9091 126.299 83.4353 126.09 82.985 125.784C82.5428 125.473 82.1479 125.072 81.8004 124.583L81.5918 124.29C81.2442 123.801 80.992 123.299 80.8351 122.785C80.6806 122.257 80.6277 121.742 80.6766 121.241C80.7196 120.732 80.8719 120.256 81.1333 119.813C81.389 119.361 81.7532 118.967 82.2259 118.631C82.7721 118.243 83.3236 118.035 83.8805 118.007C84.4397 117.966 84.9834 118.101 85.5116 118.412C86.048 118.718 86.556 119.191 87.0358 119.832L86.2529 119.818L82.9334 115.147L85.1587 113.566L91.5021 122.491L89.7415 123.742L87.795 121.004L88.0395 120.83C88.4519 121.445 88.7033 122.057 88.7937 122.668C88.8783 123.27 88.8037 123.838 88.57 124.373C88.3386 124.893 87.9457 125.35 87.3915 125.744ZM86.6871 123.484C86.9561 123.293 87.1572 123.058 87.2904 122.779C87.4317 122.495 87.4876 122.185 87.4582 121.85C87.4288 121.515 87.2953 121.181 87.0578 120.847L86.7623 120.431C86.5306 120.105 86.2632 119.884 85.9601 119.768C85.6651 119.647 85.3629 119.61 85.0536 119.658C84.7466 119.692 84.4627 119.802 84.2019 119.987C83.9084 120.196 83.6986 120.462 83.5722 120.784C83.4483 121.093 83.4126 121.432 83.4652 121.799C83.5202 122.153 83.6722 122.505 83.9213 122.855C84.1704 123.206 84.4529 123.465 84.7687 123.633C85.0868 123.787 85.4122 123.857 85.7447 123.841C86.0795 123.812 86.3937 123.693 86.6871 123.484ZM93.434 121.118L88.6373 114.369L90.8626 112.787L95.6593 119.537L93.434 121.118ZM88.9285 116.591L87.7815 114.977L90.8626 112.787L92.0096 114.401L88.9285 116.591ZM89.172 113.179C88.7644 113.469 88.3904 113.581 88.05 113.517C87.7119 113.438 87.4269 113.236 87.1952 112.91C86.9635 112.584 86.869 112.252 86.9116 111.915C86.9566 111.564 87.1788 111.247 87.5782 110.963C87.9858 110.673 88.3586 110.568 88.6967 110.646C89.029 110.717 89.311 110.915 89.5427 111.241C89.7744 111.567 89.8719 111.903 89.835 112.248C89.7924 112.585 89.5714 112.895 89.172 113.179ZM101.379 115.472L99.9711 113.491L99.6043 113.751L98.101 111.636C97.8808 111.327 97.6453 111.15 97.3943 111.108C97.1456 111.052 96.8583 111.139 96.5323 111.371C96.3774 111.481 96.152 111.647 95.8563 111.87C95.5605 112.092 95.2513 112.331 94.9286 112.584C94.606 112.838 94.312 113.072 94.0464 113.285L92.7256 111.427C92.9096 111.271 93.1303 111.09 93.3877 110.882C93.6451 110.675 93.9136 110.466 94.1931 110.255C94.4807 110.038 94.7468 109.843 94.9913 109.669C95.6842 109.177 96.3435 108.861 96.9692 108.723C97.6031 108.58 98.1912 108.622 98.7336 108.85C99.284 109.072 99.7823 109.497 100.228 110.124L103.139 114.22L101.379 115.472ZM99.3608 117.163C98.8881 117.499 98.4075 117.712 97.919 117.802C97.4305 117.891 96.9674 117.852 96.5295 117.685C96.094 117.504 95.717 117.189 95.3983 116.741C95.0392 116.235 94.884 115.732 94.9329 115.231C94.9759 114.722 95.1817 114.226 95.5502 113.744C95.9186 113.261 96.4086 112.802 97.0199 112.368L98.3281 111.438L99.145 112.587L97.8367 113.517C97.5351 113.731 97.3579 113.974 97.3049 114.245C97.2462 114.507 97.3066 114.765 97.4862 115.018C97.66 115.262 97.8834 115.404 98.1565 115.443C98.4238 115.474 98.7082 115.382 99.0098 115.168C99.2054 115.029 99.3534 114.874 99.4538 114.705C99.5566 114.522 99.596 114.309 99.5722 114.069C99.5483 113.828 99.4374 113.551 99.2393 113.238L100.1 113.362C100.39 113.856 100.557 114.332 100.601 114.791C100.648 115.237 100.569 115.661 100.364 116.064C100.168 116.461 99.8336 116.827 99.3608 117.163ZM104.626 113.163L99.8296 106.414L101.59 105.163L103.65 108.061L103.552 108.13C103.054 107.429 102.732 106.787 102.587 106.203C102.436 105.611 102.455 105.076 102.643 104.599C102.839 104.116 103.19 103.695 103.696 103.335L103.794 103.266C104.56 102.721 105.333 102.558 106.114 102.776C106.897 102.98 107.662 103.608 108.409 104.66L111.155 108.523L108.93 110.105L106.141 106.18C105.921 105.87 105.647 105.684 105.321 105.622C104.997 105.545 104.676 105.62 104.358 105.846C104.04 106.072 103.855 106.356 103.805 106.699C103.756 107.028 103.848 107.356 104.08 107.682L106.852 111.582L104.626 113.163ZM115.935 105.273C115.202 105.795 114.551 106.122 113.983 106.256C113.424 106.383 112.899 106.309 112.408 106.032C111.916 105.755 111.419 105.263 110.915 104.553L106.834 98.786L108.888 97.3262L113.012 103.155C113.227 103.456 113.469 103.634 113.74 103.687C114.013 103.726 114.3 103.638 114.602 103.424L115.531 102.763L116.852 104.622L115.935 105.273ZM108.242 102.864L107.095 101.251L111.986 97.7746L113.133 99.3886L108.242 102.864ZM120.762 102.027C119.783 102.722 118.871 103.07 118.025 103.07C117.173 103.062 116.466 102.706 115.904 102.002L117.86 100.611C118.037 100.792 118.288 100.877 118.613 100.868C118.937 100.858 119.299 100.711 119.698 100.427C119.983 100.225 120.199 100.01 120.345 99.7836C120.493 99.5434 120.498 99.3254 120.359 99.1298C120.237 98.9586 120.057 98.878 119.819 98.8879C119.574 98.8896 119.222 99.0236 118.761 99.2899L118.262 99.5712C117.334 100.096 116.53 100.311 115.85 100.218C115.17 100.124 114.625 99.7881 114.214 99.2094C113.86 98.7122 113.693 98.2177 113.711 97.7261C113.724 97.2262 113.889 96.7413 114.205 96.2712C114.521 95.8012 114.956 95.3692 115.51 94.9752C116.415 94.3322 117.287 94.0134 118.125 94.0189C118.957 94.0162 119.653 94.3741 120.213 95.0927L118.257 96.4831C118.079 96.3025 117.848 96.2095 117.562 96.2042C117.27 96.1907 116.949 96.3085 116.598 96.5576C116.346 96.7372 116.17 96.9298 116.07 97.1353C115.979 97.335 115.991 97.5164 116.107 97.6794C116.229 97.8506 116.392 97.9248 116.597 97.902C116.81 97.8735 117.098 97.7608 117.461 97.564L117.96 97.2827C118.888 96.7583 119.723 96.5266 120.466 96.5877C121.211 96.6348 121.806 96.9721 122.252 97.5998C122.583 98.0644 122.74 98.5536 122.725 99.0674C122.718 99.5753 122.546 100.084 122.209 100.594C121.88 101.097 121.397 101.575 120.762 102.027Z" fill="white"/>
</svg>
